<svg xmlns="http://www.w3.org/2000/svg" width="33" height="39" viewBox="0 0 33 39" fill="none"><path d="M16.6997 38.086C12.4902 38.086 8.53468 36.4512 5.55892 33.4811C2.58315 30.511 0.945312 26.5631 0.945312 22.3616C0.945312 18.1601 2.58315 14.2122 5.55892 11.2421C8.53468 8.272 12.4902 6.63721 16.6997 6.63721C18.7203 6.63721 20.3582 8.27197 20.3582 10.2887C20.3582 12.3054 18.7203 13.9402 16.6997 13.9402C12.0463 13.9402 8.26224 17.717 8.26224 22.3616C8.26224 27.0062 12.0463 30.783 16.6997 30.783C21.3532 30.783 25.1372 27.0062 25.1372 22.3616C25.1372 20.3449 26.7751 18.7101 28.7956 18.7101C30.8162 18.7101 32.4541 20.3449 32.4541 22.3616C32.4541 26.5631 30.8162 30.511 27.8404 33.4811C24.8647 36.4512 20.9093 38.086 16.6997 38.086Z" fill="#1e293b"></path><path d="M21.6207 21.9143L21.6268 21.9205L21.685 20.9823C21.7676 19.6287 22.3432 18.3545 23.3045 17.395C24.2658 16.4355 25.5425 15.8611 26.8987 15.7786L27.8385 15.7205L27.8324 15.7144C28.9988 15.745 30.1745 15.3263 31.0776 14.4615C32.8686 12.7412 32.9176 9.86588 31.1848 8.08749C29.4305 6.28771 26.5435 6.27239 24.7709 8.04161C23.8616 8.94914 23.4209 10.15 23.4545 11.3417L23.4484 11.3356L23.3932 12.2737C23.3106 13.6274 22.7351 14.9046 21.7738 15.8641H21.7768C20.8155 16.8205 19.5358 17.395 18.1796 17.4745L17.2397 17.5294L17.2458 17.5356C16.0794 17.505 14.9038 17.9206 14.0006 18.7884C12.2096 20.5087 12.1607 23.3841 13.8935 25.1625C15.6477 26.9622 18.5347 26.9776 20.3073 25.2083C21.2166 24.3008 21.6574 23.0999 21.6238 21.9082L21.6207 21.9143Z" fill="#1e293b"></path><path d="M21.8869 5.50372C23.3173 5.50372 24.4769 4.34635 24.4769 2.91864C24.4769 1.49094 23.3173 0.333496 21.8869 0.333496C20.4565 0.333496 19.2969 1.49094 19.2969 2.91864C19.2969 4.34635 20.4565 5.50372 21.8869 5.50372Z" fill="#1e293b"></path></svg>